<?xml version="1.0" encoding="UTF-8"?>
<svg width="320" height="600" viewBox="0 0 320 600" fill="none" xmlns="http://www.w3.org/2000/svg">
    <!-- Phone Frame -->
    <rect x="10" y="10" width="300" height="580" rx="30" fill="#F8FAFC"/>
    <rect x="20" y="20" width="280" height="560" rx="20" fill="white" stroke="#E2E8F0" stroke-width="2"/>
    
    <!-- Status Bar -->
    <rect x="20" y="20" width="280" height="40" rx="20" fill="#0EA5E9"/>
    <text x="40" y="44" font-family="Arial" font-size="12" fill="white">9:41</text>
    <text x="260" y="44" font-family="Arial" font-size="12" fill="white" text-anchor="end">
        <tspan>๐ถ</tspan> 100% <tspan>๐</tspan>
    </text>
    
    <!-- App Header -->
    <rect x="20" y="70" width="280" height="60" fill="#0EA5E9"/>
    <text x="160" y="110" font-family="Arial" font-size="18" font-weight="bold" fill="white" text-anchor="middle">ูุธุงู ุงููุฎุงููุงุช</text>
    
    <!-- User Info -->
    <circle cx="50" cy="160" r="30" fill="#E2E8F0"/>
    <rect x="90" y="140" width="150" height="15" rx="4" fill="#E2E8F0"/>
    <rect x="90" y="165" width="120" height="10" rx="4" fill="#F1F5F9"/>
    
    <!-- Balance Card -->
    <rect x="30" y="210" width="260" height="100" rx="10" fill="#0EA5E9"/>
    <text x="40" y="240" font-family="Arial" font-size="14" fill="white">ุงูุฑุตูุฏ ุงููุชุงุญ</text>
    <text x="280" y="270" font-family="Arial" font-size="28" font-weight="bold" fill="white" text-anchor="end">1,250 ุฑ.ุณ</text>
    
    <!-- Quick Actions -->
    <rect x="40" y="340" width="70" height="80" rx="8" fill="#F1F5F9"/>
    <rect x="45" y="345" width="60" height="20" rx="4" fill="#E2E8F0"/>
    <rect x="55" y="380" width="40" height="30" rx="4" fill="#0EA5E9"/>
    
    <rect x="125" y="340" width="70" height="80" rx="8" fill="#F1F5F9"/>
    <rect x="130" y="345" width="60" height="20" rx="4" fill="#E2E8F0"/>
    <rect x="140" y="380" width="40" height="30" rx="4" fill="#22C55E"/>
    
    <rect x="210" y="340" width="70" height="80" rx="8" fill="#F1F5F9"/>
    <rect x="215" y="345" width="60" height="20" rx="4" fill="#E2E8F0"/>
    <rect x="225" y="380" width="40" height="30" rx="4" fill="#F59E0B"/>
    
    <!-- Recent Transactions -->
    <rect x="30" y="450" width="260" height="30" rx="4" fill="#F1F5F9"/>
    <rect x="30" y="490" width="260" height="50" rx="4" fill="#F8FAFC"/>
    <rect x="40" y="500" width="40" height="30" rx="4" fill="#E2E8F0"/>
    <rect x="90" y="500" width="100" height="10" rx="2" fill="#E2E8F0"/>
    <rect x="90" y="515" width="70" height="8" rx="2" fill="#F1F5F9"/>
    <rect x="240" y="505" width="40" height="20" rx="4" fill="#F59E0B" fill-opacity="0.2"/>
    <text x="260" y="520" font-family="Arial" font-size="10" fill="#D97706" text-anchor="end">150 ุฑ.ุณ</text>
    
    <!-- Bottom Navigation -->
    <rect x="20" y="560" width="280" height="60" fill="white" stroke="#E2E8F0" stroke-width="1"/>
    <circle cx="80" cy="580" r="4" fill="#0EA5E9"/>
    <circle cx="160" cy="580" r="4" fill="#E2E8F0"/>
    <circle cx="240" cy="580" r="4" fill="#E2E8F0"/>
</svg>
